<?xml version="1.0" standalone="no"?>
<!DOCTYPE svg PUBLIC "-//W3C//DTD SVG 20010904//EN"
 "http://www.w3.org/TR/2001/REC-SVG-20010904/DTD/svg10.dtd">
<svg version="1.0" xmlns="http://www.w3.org/2000/svg"
 width="234.000000pt" height="234.000000pt" viewBox="0 0 234.000000 234.000000"
 preserveAspectRatio="xMidYMid meet">
<metadata>
Created by potrace 1.11, written by Peter Selinger 2001-2013
</metadata>
<g transform="translate(0.000000,234.000000) scale(0.100000,-0.100000)"
fill="#000000" stroke="none">
<path d="M620 2167 c-43 -15 -45 -18 -265 -402 -98 -170 -211 -367 -251 -437
-55 -94 -74 -137 -74 -163 0 -29 54 -130 271 -506 150 -259 281 -476 293 -484
17 -10 135 -14 576 -17 502 -3 558 -1 581 13 14 9 58 75 98 145 41 71 95 165
121 209 26 44 84 145 130 225 46 80 113 195 148 255 102 173 120 113 -196 661
-159 276 -281 477 -297 489 -26 19 -44 20 -563 22 -399 2 -546 -1 -572 -10z
m1224 -401 c30 -13 75 -43 100 -66 44 -41 106 -146 106 -180 0 -13 -28 -27
-107 -56 -59 -22 -110 -40 -113 -41 -3 -2 -17 21 -33 50 -30 58 -73 92 -129
102 -80 15 -158 -42 -158 -114 0 -68 43 -103 214 -171 244 -97 321 -170 349
-335 37 -215 -98 -403 -322 -451 -175 -37 -341 4 -443 108 -50 52 -107 156
-111 203 -2 28 0 29 93 56 52 16 104 30 116 33 17 5 24 -3 43 -48 41 -100 106
-142 208 -134 130 11 187 140 98 223 -20 20 -74 47 -146 75 -157 59 -223 94
-269 140 -40 40 -82 112 -94 164 -11 46 -8 161 5 208 29 99 110 191 206 235
100 46 282 45 387 -1z m-664 -86 l0 -110 -235 0 -235 0 0 -163 0 -164 122 -6
c66 -4 147 -7 180 -7 l58 0 0 -110 0 -110 -180 0 -180 0 0 -250 0 -250 -145 0
-145 0 0 640 0 640 380 0 380 0 0 -110z"/>
</g>
</svg>
